<mxfile host="app.diagrams.net" agent="Mozilla/5.0 (X11; Linux x86_64) AppleWebKit/537.36 (KHTML, like Gecko) Chrome/139.0.0.0 Safari/537.36" version="28.1.0">
  <diagram id="uml_complete" name="UML - Prezzo Minimo (Complete)">
    <mxGraphModel dx="2193" dy="1124" grid="1" gridSize="10" guides="1" tooltips="1" connect="1" arrows="1" fold="1" page="1" pageScale="1" pageWidth="2400" pageHeight="1500" background="#ffffff" math="0" shadow="0">
      <root>
        <mxCell id="0" />
        <mxCell id="1" parent="0" />
        <mxCell id="c_Utente" value="&lt;div style=&quot;font-weight:bold;font-size:18px;margin-bottom:6px&quot;&gt;Utente&lt;/div&gt;&lt;hr&gt;- id : int&lt;br&gt;- nome : string&lt;br&gt;- email : string&lt;br&gt;- password Hash : string&lt;br&gt;- ruolo : Ruolo" style="shape=rectangle;rounded=1;whiteSpace=wrap;html=1;fillColor=#f3e8ff;strokeColor=#7e57c2;fontSize=15;verticalAlign=top;spacingTop=10;spacingLeft=12;spacingRight=12;spacingBottom=10;" parent="1" vertex="1">
          <mxGeometry x="80" y="80" width="360" height="210" as="geometry" />
        </mxCell>
        <mxCell id="c_Prodotto" value="&lt;div style=&quot;font-weight:bold;font-size:18px;margin-bottom:6px&quot;&gt;Prodotto&lt;/div&gt;&lt;hr&gt;- id : int&lt;br&gt;- nome : string&lt;br&gt;- marca : string&lt;br&gt;- codice EAN : string&lt;br&gt;- descrizione : string&lt;br&gt;- foto URL : string" style="shape=rectangle;rounded=1;whiteSpace=wrap;html=1;fillColor=#e8f0fe;strokeColor=#3367d6;fontSize=15;verticalAlign=top;spacingTop=10;spacingLeft=12;spacingRight=12;spacingBottom=10;" parent="1" vertex="1">
          <mxGeometry x="500" y="80" width="360" height="210" as="geometry" />
        </mxCell>
        <mxCell id="c_PuntoVendita" value="&lt;div style=&#39;font-weight:bold;font-size:18px;margin-bottom:6px&#39;&gt;PuntoVendita&lt;/div&gt;&lt;hr/&gt;- id : int&lt;br/&gt;- nome : string&lt;br/&gt;- indirizzo : string&lt;br/&gt;- citta : string&lt;br/&gt;- telefono : string&lt;br/&gt;- email : string" style="shape=rectangle;rounded=1;whiteSpace=wrap;html=1;fillColor=#fff4e5;strokeColor=#ff8f00;fontSize=15;verticalAlign=top;spacingTop=10;spacingLeft=12;spacingRight=12;spacingBottom=10;" parent="1" vertex="1">
          <mxGeometry x="920" y="80" width="360" height="210" as="geometry" />
        </mxCell>
        <mxCell id="c_Ruolo" value="&lt;div style=&#39;font-weight:bold;font-size:18px;margin-bottom:6px&#39;&gt;Ruolo (enum)&lt;/div&gt;&lt;hr/&gt;- visitatore&lt;br/&gt;- utente&lt;br/&gt;- punto_vendita&lt;br/&gt;- azienda&lt;br/&gt;- admin" style="shape=rectangle;rounded=1;whiteSpace=wrap;html=1;fillColor=#ffffff;strokeColor=#999999;fontSize=15;verticalAlign=top;spacingTop=10;spacingLeft=12;spacingRight=12;spacingBottom=10;" parent="1" vertex="1">
          <mxGeometry x="1360" y="80" width="280" height="170" as="geometry" />
        </mxCell>
        <mxCell id="c_Prezzo" value="&lt;div style=&quot;font-weight:bold;font-size:18px;margin-bottom:6px&quot;&gt;Prezzo&lt;/div&gt;&lt;hr&gt;- id : int&lt;br&gt;- valore : decimal&lt;br&gt;- data Inizio Validita : date&lt;br&gt;- data Fine Validita : date&lt;br&gt;- prodotto Id : int&lt;br&gt;- punto Vendita Id : int&lt;br&gt;- autore Id : int" style="shape=rectangle;rounded=1;whiteSpace=wrap;html=1;fillColor=#e7f5e8;strokeColor=#2e7d32;fontSize=15;verticalAlign=top;spacingTop=10;spacingLeft=12;spacingRight=12;spacingBottom=10;" parent="1" vertex="1">
          <mxGeometry x="500" y="360" width="360" height="230" as="geometry" />
        </mxCell>
        <mxCell id="c_Offerta" value="&lt;div style=&#39;font-weight:bold;font-size:18px;margin-bottom:6px&#39;&gt;Offerta&lt;/div&gt;&lt;hr/&gt;- id : int&lt;br/&gt;- puntoVenditaId : int&lt;br/&gt;- dataInizio : date&lt;br/&gt;- dataFine : date" style="shape=rectangle;rounded=1;whiteSpace=wrap;html=1;fillColor=#ffebee;strokeColor=#c62828;fontSize=15;verticalAlign=top;spacingTop=10;spacingLeft=12;spacingRight=12;spacingBottom=10;" parent="1" vertex="1">
          <mxGeometry x="920" y="360" width="360" height="210" as="geometry" />
        </mxCell>
        <mxCell id="c_Notifica" value="&lt;div style=&#39;font-weight:bold;font-size:18px;margin-bottom:6px&#39;&gt;Notifica&lt;/div&gt;&lt;hr/&gt;- id : int&lt;br/&gt;- utenteId : int&lt;br/&gt;- prodottoId : int&lt;br/&gt;- sogliaPrezzo : decimal&lt;br/&gt;- tipo : TipoNotifica&lt;br/&gt;- dataInvio : datetime&lt;br/&gt;- letto : bool" style="shape=rectangle;rounded=1;whiteSpace=wrap;html=1;fillColor=#eceff1;strokeColor=#455a64;fontSize=15;verticalAlign=top;spacingTop=10;spacingLeft=12;spacingRight=12;spacingBottom=10;" parent="1" vertex="1">
          <mxGeometry x="1360" y="360" width="360" height="230" as="geometry" />
        </mxCell>
        <mxCell id="c_TipoNotifica" value="&lt;div style=&#39;font-weight:bold;font-size:18px;margin-bottom:6px&#39;&gt;TipoNotifica (enum)&lt;/div&gt;&lt;hr/&gt;- email&lt;br/&gt;- push" style="shape=rectangle;rounded=1;whiteSpace=wrap;html=1;fillColor=#ffffff;strokeColor=#999999;fontSize=15;verticalAlign=top;spacingTop=10;spacingLeft=12;spacingRight=12;spacingBottom=10;" parent="1" vertex="1">
          <mxGeometry x="1760" y="400" width="260" height="120" as="geometry" />
        </mxCell>
        <mxCell id="c_Watchlist" value="&lt;div style=&#39;font-weight:bold;font-size:18px;margin-bottom:6px&#39;&gt;Watchlist&lt;/div&gt;&lt;hr/&gt;- id : int&lt;br/&gt;- utenteId : int&lt;br/&gt;- prodottoId : int" style="shape=rectangle;rounded=1;whiteSpace=wrap;html=1;fillColor=#fff8e1;strokeColor=#f9a825;fontSize=15;verticalAlign=top;spacingTop=10;spacingLeft=12;spacingRight=12;spacingBottom=10;" parent="1" vertex="1">
          <mxGeometry x="80" y="700" width="360" height="170" as="geometry" />
        </mxCell>
        <mxCell id="c_DettaglioOfferta" value="&lt;div style=&#39;font-weight:bold;font-size:18px;margin-bottom:6px&#39;&gt;DettaglioOfferta&lt;/div&gt;&lt;hr/&gt;- id : int&lt;br/&gt;- offertaId : int&lt;br/&gt;- prodottoId : int&lt;br/&gt;- prezzoOfferta : decimal" style="shape=rectangle;rounded=1;whiteSpace=wrap;html=1;fillColor=#fde0e0;strokeColor=#b71c1c;fontSize=15;verticalAlign=top;spacingTop=10;spacingLeft=12;spacingRight=12;spacingBottom=10;" parent="1" vertex="1">
          <mxGeometry x="920" y="700" width="360" height="190" as="geometry" />
        </mxCell>
        <mxCell id="lhEORBRRk6J1xKkH3bAF-8" value="" style="edgeStyle=none;orthogonalLoop=1;jettySize=auto;html=1;rounded=0;fontSize=12;startSize=8;endSize=8;curved=1;exitX=0.5;exitY=1;exitDx=0;exitDy=0;entryX=0.5;entryY=0;entryDx=0;entryDy=0;" edge="1" parent="1" source="c_Prodotto" target="c_Prezzo">
          <mxGeometry width="120" relative="1" as="geometry">
            <mxPoint x="140" y="530" as="sourcePoint" />
            <mxPoint x="270" y="520" as="targetPoint" />
            <Array as="points" />
          </mxGeometry>
        </mxCell>
        <mxCell id="lhEORBRRk6J1xKkH3bAF-9" value="" style="edgeStyle=none;orthogonalLoop=1;jettySize=auto;html=1;rounded=0;fontSize=12;startSize=8;endSize=8;curved=1;exitX=0.022;exitY=0.959;exitDx=0;exitDy=0;entryX=0.974;entryY=0.041;entryDx=0;entryDy=0;exitPerimeter=0;entryPerimeter=0;" edge="1" parent="1" source="c_PuntoVendita" target="c_Prezzo">
          <mxGeometry width="120" relative="1" as="geometry">
            <mxPoint x="360" y="380" as="sourcePoint" />
            <mxPoint x="680" y="320" as="targetPoint" />
            <Array as="points" />
          </mxGeometry>
        </mxCell>
        <mxCell id="lhEORBRRk6J1xKkH3bAF-13" value="" style="edgeStyle=none;orthogonalLoop=1;jettySize=auto;html=1;rounded=0;fontSize=12;startSize=8;endSize=8;curved=0;entryX=0;entryY=0.5;entryDx=0;entryDy=0;dashed=1;exitX=1;exitY=0.5;exitDx=0;exitDy=0;dashPattern=8 8;" edge="1" parent="1" source="c_Utente" target="c_Prezzo">
          <mxGeometry width="120" relative="1" as="geometry">
            <mxPoint x="460" y="200" as="sourcePoint" />
            <mxPoint x="440" y="480" as="targetPoint" />
            <Array as="points">
              <mxPoint x="460" y="185" />
              <mxPoint x="460" y="360" />
              <mxPoint x="460" y="475" />
            </Array>
          </mxGeometry>
        </mxCell>
        <mxCell id="lhEORBRRk6J1xKkH3bAF-15" value="&lt;font style=&quot;font-size: 16px;&quot;&gt;autore&lt;/font&gt;" style="edgeLabel;html=1;align=center;verticalAlign=middle;resizable=0;points=[];fontSize=12;" vertex="1" connectable="0" parent="lhEORBRRk6J1xKkH3bAF-13">
          <mxGeometry x="-0.2034" y="-1" relative="1" as="geometry">
            <mxPoint x="1" y="-5" as="offset" />
          </mxGeometry>
        </mxCell>
        <mxCell id="lhEORBRRk6J1xKkH3bAF-16" value="" style="edgeStyle=none;orthogonalLoop=1;jettySize=auto;html=1;rounded=0;fontSize=12;startSize=8;endSize=8;curved=1;exitX=0.5;exitY=1;exitDx=0;exitDy=0;entryX=0.5;entryY=0;entryDx=0;entryDy=0;" edge="1" parent="1" source="c_Utente" target="c_Watchlist">
          <mxGeometry width="120" relative="1" as="geometry">
            <mxPoint x="390" y="370" as="sourcePoint" />
            <mxPoint x="510" y="370" as="targetPoint" />
            <Array as="points" />
          </mxGeometry>
        </mxCell>
        <mxCell id="lhEORBRRk6J1xKkH3bAF-18" value="" style="edgeStyle=orthogonalEdgeStyle;orthogonalLoop=1;jettySize=auto;html=1;rounded=0;fontSize=12;startSize=8;endSize=8;exitX=0.25;exitY=0;exitDx=0;exitDy=0;" edge="1" parent="1" source="c_Prodotto" target="c_Watchlist">
          <mxGeometry width="120" relative="1" as="geometry">
            <mxPoint x="470" y="20" as="sourcePoint" />
            <mxPoint x="89" y="770" as="targetPoint" />
            <Array as="points">
              <mxPoint x="590" y="40" />
              <mxPoint x="30" y="40" />
              <mxPoint x="30" y="785" />
            </Array>
          </mxGeometry>
        </mxCell>
        <mxCell id="lhEORBRRk6J1xKkH3bAF-19" value="" style="edgeStyle=none;orthogonalLoop=1;jettySize=auto;html=1;rounded=0;fontSize=12;startSize=8;endSize=8;curved=1;exitX=0.5;exitY=1;exitDx=0;exitDy=0;entryX=0.5;entryY=0;entryDx=0;entryDy=0;" edge="1" parent="1" source="c_PuntoVendita" target="c_Offerta">
          <mxGeometry width="120" relative="1" as="geometry">
            <mxPoint x="1100" y="320" as="sourcePoint" />
            <mxPoint x="1220" y="320" as="targetPoint" />
            <Array as="points" />
          </mxGeometry>
        </mxCell>
        <mxCell id="lhEORBRRk6J1xKkH3bAF-20" value="" style="edgeStyle=none;orthogonalLoop=1;jettySize=auto;html=1;rounded=0;fontSize=12;startSize=8;endSize=8;curved=1;exitX=0.5;exitY=1;exitDx=0;exitDy=0;" edge="1" parent="1" source="c_Offerta">
          <mxGeometry width="120" relative="1" as="geometry">
            <mxPoint x="1070" y="630" as="sourcePoint" />
            <mxPoint x="1100" y="700" as="targetPoint" />
            <Array as="points" />
          </mxGeometry>
        </mxCell>
        <mxCell id="lhEORBRRk6J1xKkH3bAF-27" value="" style="orthogonalLoop=1;jettySize=auto;html=1;rounded=0;fontSize=12;exitX=0.75;exitY=1;exitDx=0;exitDy=0;endArrow=none;endFill=0;" edge="1" parent="1" source="c_Prodotto">
          <mxGeometry width="120" relative="1" as="geometry">
            <mxPoint x="600" y="770" as="sourcePoint" />
            <mxPoint x="770" y="360" as="targetPoint" />
          </mxGeometry>
        </mxCell>
        <mxCell id="lhEORBRRk6J1xKkH3bAF-28" value="" style="edgeStyle=orthogonalEdgeStyle;orthogonalLoop=1;jettySize=auto;html=1;rounded=0;fontSize=12;startSize=8;endSize=8;exitX=0.75;exitY=1;exitDx=0;exitDy=0;entryX=0;entryY=0.5;entryDx=0;entryDy=0;" edge="1" parent="1" source="c_Prezzo" target="c_DettaglioOfferta">
          <mxGeometry width="120" relative="1" as="geometry">
            <mxPoint x="750" y="620" as="sourcePoint" />
            <mxPoint x="770" y="770" as="targetPoint" />
          </mxGeometry>
        </mxCell>
        <mxCell id="lhEORBRRk6J1xKkH3bAF-29" value="t" style="edgeStyle=orthogonalEdgeStyle;orthogonalLoop=1;jettySize=auto;html=1;rounded=0;fontSize=12;startSize=8;endSize=8;exitX=0.75;exitY=1;exitDx=0;exitDy=0;entryX=0.5;entryY=1;entryDx=0;entryDy=0;" edge="1" parent="1" source="c_Utente" target="c_Notifica">
          <mxGeometry width="120" relative="1" as="geometry">
            <mxPoint x="340" y="430" as="sourcePoint" />
            <mxPoint x="460" y="430" as="targetPoint" />
          </mxGeometry>
        </mxCell>
        <mxCell id="lhEORBRRk6J1xKkH3bAF-31" value="" style="edgeStyle=orthogonalEdgeStyle;orthogonalLoop=1;jettySize=auto;html=1;rounded=0;fontSize=12;startSize=8;endSize=8;exitX=0.75;exitY=0;exitDx=0;exitDy=0;entryX=0;entryY=0.5;entryDx=0;entryDy=0;" edge="1" parent="1" source="c_Prodotto" target="c_Notifica">
          <mxGeometry width="120" relative="1" as="geometry">
            <mxPoint x="820" y="10" as="sourcePoint" />
            <mxPoint x="1320" y="470" as="targetPoint" />
            <Array as="points">
              <mxPoint x="770" y="40" />
              <mxPoint x="1320" y="40" />
              <mxPoint x="1320" y="475" />
            </Array>
          </mxGeometry>
        </mxCell>
        <mxCell id="lhEORBRRk6J1xKkH3bAF-32" value="" style="edgeStyle=orthogonalEdgeStyle;orthogonalLoop=1;jettySize=auto;html=1;rounded=0;fontSize=12;startSize=8;endSize=8;exitX=0.5;exitY=0;exitDx=0;exitDy=0;entryX=0.5;entryY=0;entryDx=0;entryDy=0;dashed=1;dashPattern=8 8;" edge="1" parent="1" source="c_Utente" target="c_Ruolo">
          <mxGeometry width="120" relative="1" as="geometry">
            <mxPoint x="280" y="90.21000000000001" as="sourcePoint" />
            <mxPoint x="1500" y="92.93" as="targetPoint" />
            <Array as="points">
              <mxPoint x="260" y="20" />
              <mxPoint x="1500" y="20" />
            </Array>
          </mxGeometry>
        </mxCell>
        <mxCell id="lhEORBRRk6J1xKkH3bAF-33" value="" style="edgeStyle=orthogonalEdgeStyle;orthogonalLoop=1;jettySize=auto;html=1;rounded=0;fontSize=12;startSize=8;endSize=8;exitX=0.5;exitY=0;exitDx=0;exitDy=0;entryX=0.467;entryY=0;entryDx=0;entryDy=0;entryPerimeter=0;dashed=1;dashPattern=8 8;" edge="1" parent="1" source="c_Notifica" target="c_TipoNotifica">
          <mxGeometry width="120" relative="1" as="geometry">
            <mxPoint x="1740" y="200" as="sourcePoint" />
            <mxPoint x="1880" y="280" as="targetPoint" />
          </mxGeometry>
        </mxCell>
        <mxCell id="lhEORBRRk6J1xKkH3bAF-36" value="1" style="text;html=1;align=center;verticalAlign=middle;resizable=0;points=[];autosize=1;strokeColor=none;fillColor=none;fontSize=16;" vertex="1" parent="1">
          <mxGeometry x="650" y="290" width="30" height="30" as="geometry" />
        </mxCell>
        <mxCell id="lhEORBRRk6J1xKkH3bAF-37" value="*" style="text;html=1;align=center;verticalAlign=middle;resizable=0;points=[];autosize=1;strokeColor=none;fillColor=none;fontSize=16;" vertex="1" parent="1">
          <mxGeometry x="649" y="331" width="30" height="30" as="geometry" />
        </mxCell>
        <mxCell id="lhEORBRRk6J1xKkH3bAF-38" value="1" style="text;html=1;align=center;verticalAlign=middle;resizable=0;points=[];autosize=1;strokeColor=none;fillColor=none;fontSize=16;" vertex="1" parent="1">
          <mxGeometry x="889" y="261" width="30" height="30" as="geometry" />
        </mxCell>
        <mxCell id="lhEORBRRk6J1xKkH3bAF-39" value="*" style="text;html=1;align=center;verticalAlign=middle;resizable=0;points=[];autosize=1;strokeColor=none;fillColor=none;fontSize=16;" vertex="1" parent="1">
          <mxGeometry x="830" y="331" width="30" height="30" as="geometry" />
        </mxCell>
        <mxCell id="lhEORBRRk6J1xKkH3bAF-40" value="0..*" style="text;html=1;align=center;verticalAlign=middle;resizable=0;points=[];autosize=1;strokeColor=none;fillColor=none;fontSize=16;" vertex="1" parent="1">
          <mxGeometry x="440" y="150" width="50" height="30" as="geometry" />
        </mxCell>
        <mxCell id="lhEORBRRk6J1xKkH3bAF-41" value="*" style="text;html=1;align=center;verticalAlign=middle;resizable=0;points=[];autosize=1;strokeColor=none;fillColor=none;fontSize=16;" vertex="1" parent="1">
          <mxGeometry x="470" y="445" width="30" height="30" as="geometry" />
        </mxCell>
        <mxCell id="lhEORBRRk6J1xKkH3bAF-42" value="1" style="text;html=1;align=center;verticalAlign=middle;resizable=0;points=[];autosize=1;strokeColor=none;fillColor=none;fontSize=16;" vertex="1" parent="1">
          <mxGeometry x="230" y="291" width="30" height="30" as="geometry" />
        </mxCell>
        <mxCell id="lhEORBRRk6J1xKkH3bAF-43" value="*" style="text;html=1;align=center;verticalAlign=middle;resizable=0;points=[];autosize=1;strokeColor=none;fillColor=none;fontSize=16;" vertex="1" parent="1">
          <mxGeometry x="230" y="670" width="30" height="30" as="geometry" />
        </mxCell>
        <mxCell id="lhEORBRRk6J1xKkH3bAF-44" value="1" style="text;html=1;align=center;verticalAlign=middle;resizable=0;points=[];autosize=1;strokeColor=none;fillColor=none;fontSize=16;" vertex="1" parent="1">
          <mxGeometry x="559" y="51" width="30" height="30" as="geometry" />
        </mxCell>
        <mxCell id="lhEORBRRk6J1xKkH3bAF-45" value="*" style="text;html=1;align=center;verticalAlign=middle;resizable=0;points=[];autosize=1;strokeColor=none;fillColor=none;fontSize=16;" vertex="1" parent="1">
          <mxGeometry x="49" y="751" width="30" height="30" as="geometry" />
        </mxCell>
        <mxCell id="lhEORBRRk6J1xKkH3bAF-47" value="1" style="text;html=1;align=center;verticalAlign=middle;resizable=0;points=[];autosize=1;strokeColor=none;fillColor=none;fontSize=16;" vertex="1" parent="1">
          <mxGeometry x="1069" y="290" width="30" height="30" as="geometry" />
        </mxCell>
        <mxCell id="lhEORBRRk6J1xKkH3bAF-48" value="*" style="text;html=1;align=center;verticalAlign=middle;resizable=0;points=[];autosize=1;strokeColor=none;fillColor=none;fontSize=16;" vertex="1" parent="1">
          <mxGeometry x="1069" y="330" width="30" height="30" as="geometry" />
        </mxCell>
        <mxCell id="lhEORBRRk6J1xKkH3bAF-49" value="1" style="text;html=1;align=center;verticalAlign=middle;resizable=0;points=[];autosize=1;strokeColor=none;fillColor=none;fontSize=16;" vertex="1" parent="1">
          <mxGeometry x="1069" y="571" width="30" height="30" as="geometry" />
        </mxCell>
        <mxCell id="lhEORBRRk6J1xKkH3bAF-50" value="*" style="text;html=1;align=center;verticalAlign=middle;resizable=0;points=[];autosize=1;strokeColor=none;fillColor=none;fontSize=16;" vertex="1" parent="1">
          <mxGeometry x="1069" y="671" width="30" height="30" as="geometry" />
        </mxCell>
        <mxCell id="lhEORBRRk6J1xKkH3bAF-51" value="1" style="text;html=1;align=center;verticalAlign=middle;resizable=0;points=[];autosize=1;strokeColor=none;fillColor=none;fontSize=16;" vertex="1" parent="1">
          <mxGeometry x="769" y="291" width="30" height="30" as="geometry" />
        </mxCell>
        <mxCell id="lhEORBRRk6J1xKkH3bAF-52" value="*" style="text;html=1;align=center;verticalAlign=middle;resizable=0;points=[];autosize=1;strokeColor=none;fillColor=none;fontSize=16;" vertex="1" parent="1">
          <mxGeometry x="889" y="761" width="30" height="30" as="geometry" />
        </mxCell>
        <mxCell id="lhEORBRRk6J1xKkH3bAF-53" value="0" style="text;html=1;align=center;verticalAlign=middle;resizable=0;points=[];autosize=1;strokeColor=none;fillColor=none;fontSize=16;" vertex="1" parent="1">
          <mxGeometry x="319" y="290" width="30" height="30" as="geometry" />
        </mxCell>
        <mxCell id="lhEORBRRk6J1xKkH3bAF-54" value="*" style="text;html=1;align=center;verticalAlign=middle;resizable=0;points=[];autosize=1;strokeColor=none;fillColor=none;fontSize=16;" vertex="1" parent="1">
          <mxGeometry x="1540" y="590" width="30" height="30" as="geometry" />
        </mxCell>
        <mxCell id="lhEORBRRk6J1xKkH3bAF-55" value="1" style="text;html=1;align=center;verticalAlign=middle;resizable=0;points=[];autosize=1;strokeColor=none;fillColor=none;fontSize=16;" vertex="1" parent="1">
          <mxGeometry x="739" y="51" width="30" height="30" as="geometry" />
        </mxCell>
        <mxCell id="lhEORBRRk6J1xKkH3bAF-56" value="*" style="text;html=1;align=center;verticalAlign=middle;resizable=0;points=[];autosize=1;strokeColor=none;fillColor=none;fontSize=16;" vertex="1" parent="1">
          <mxGeometry x="1330" y="475" width="30" height="30" as="geometry" />
        </mxCell>
        <mxCell id="lhEORBRRk6J1xKkH3bAF-57" value="1" style="text;html=1;align=center;verticalAlign=middle;resizable=0;points=[];autosize=1;strokeColor=none;fillColor=none;fontSize=16;" vertex="1" parent="1">
          <mxGeometry x="230" y="51" width="30" height="30" as="geometry" />
        </mxCell>
        <mxCell id="lhEORBRRk6J1xKkH3bAF-58" value="1" style="text;html=1;align=center;verticalAlign=middle;resizable=0;points=[];autosize=1;strokeColor=none;fillColor=none;fontSize=16;" vertex="1" parent="1">
          <mxGeometry x="1509" y="331" width="30" height="30" as="geometry" />
        </mxCell>
      </root>
    </mxGraphModel>
  </diagram>
</mxfile>
